<mxfile host="app.diagrams.net" modified="2024-04-01T07:28:52.705Z" agent="Mozilla/5.0 (Macintosh; Intel Mac OS X 10_15_7) AppleWebKit/537.36 (KHTML, like Gecko) Chrome/123.0.0.0 Safari/537.36" etag="99BCgrtHvdFWbVSWeFH2" version="24.1.0" type="device">
  <diagram name="Page-1" id="Q4vXJlO9niQhnewD6HPh">
    <mxGraphModel dx="2092" dy="1855" grid="1" gridSize="10" guides="1" tooltips="1" connect="1" arrows="1" fold="1" page="1" pageScale="1" pageWidth="850" pageHeight="1100" math="0" shadow="0">
      <root>
        <mxCell id="0" />
        <mxCell id="1" parent="0" />
        <mxCell id="tZp8eonRlOqNcPzEyTe8-2" value="" style="shape=card;whiteSpace=wrap;html=1;" parent="1" vertex="1">
          <mxGeometry x="449" y="10" width="120" height="205" as="geometry" />
        </mxCell>
        <mxCell id="tZp8eonRlOqNcPzEyTe8-3" value="VRG" style="text;html=1;align=center;verticalAlign=middle;resizable=0;points=[];autosize=1;strokeColor=none;fillColor=none;" parent="1" vertex="1">
          <mxGeometry x="484" y="10" width="50" height="30" as="geometry" />
        </mxCell>
        <mxCell id="tZp8eonRlOqNcPzEyTe8-4" value="" style="rounded=1;whiteSpace=wrap;html=1;" parent="1" vertex="1">
          <mxGeometry x="90" y="460" width="830" height="260" as="geometry" />
        </mxCell>
        <mxCell id="tZp8eonRlOqNcPzEyTe8-5" value="VRG_Controller" style="text;html=1;align=center;verticalAlign=middle;resizable=0;points=[];autosize=1;strokeColor=none;fillColor=none;" parent="1" vertex="1">
          <mxGeometry x="350" y="460" width="110" height="30" as="geometry" />
        </mxCell>
        <mxCell id="tZp8eonRlOqNcPzEyTe8-6" value="" style="endArrow=classic;html=1;rounded=0;exitX=0.449;exitY=1;exitDx=0;exitDy=0;exitPerimeter=0;entryX=0.5;entryY=0;entryDx=0;entryDy=0;" parent="1" source="tZp8eonRlOqNcPzEyTe8-2" target="tZp8eonRlOqNcPzEyTe8-4" edge="1">
          <mxGeometry width="50" height="50" relative="1" as="geometry">
            <mxPoint x="400" y="410" as="sourcePoint" />
            <mxPoint x="450" y="360" as="targetPoint" />
          </mxGeometry>
        </mxCell>
        <mxCell id="tZp8eonRlOqNcPzEyTe8-7" value="Create: All&lt;div&gt;Delete: All&lt;/div&gt;&lt;div&gt;Update: 1. Generation&lt;br&gt;&amp;nbsp; &amp;nbsp; &amp;nbsp; &amp;nbsp; &amp;nbsp; &amp;nbsp; &amp;nbsp; 2. Annotation&lt;/div&gt;&lt;div&gt;&amp;nbsp; &amp;nbsp; &amp;nbsp; &amp;nbsp; &amp;nbsp; &amp;nbsp; &amp;nbsp; 3. Label&lt;/div&gt;" style="text;html=1;align=left;verticalAlign=middle;resizable=0;points=[];autosize=1;strokeColor=none;fillColor=none;" parent="1" vertex="1">
          <mxGeometry x="460" y="255" width="140" height="90" as="geometry" />
        </mxCell>
        <mxCell id="tZp8eonRlOqNcPzEyTe8-10" value="" style="group" parent="1" vertex="1" connectable="0">
          <mxGeometry x="-10" y="45" width="120" height="100" as="geometry" />
        </mxCell>
        <mxCell id="tZp8eonRlOqNcPzEyTe8-8" value="" style="shape=card;whiteSpace=wrap;html=1;" parent="tZp8eonRlOqNcPzEyTe8-10" vertex="1">
          <mxGeometry width="120" height="100" as="geometry" />
        </mxCell>
        <mxCell id="tZp8eonRlOqNcPzEyTe8-9" value="PVC" style="text;html=1;align=center;verticalAlign=middle;resizable=0;points=[];autosize=1;strokeColor=none;fillColor=none;" parent="tZp8eonRlOqNcPzEyTe8-10" vertex="1">
          <mxGeometry x="40" width="50" height="30" as="geometry" />
        </mxCell>
        <mxCell id="tZp8eonRlOqNcPzEyTe8-11" value="" style="endArrow=classic;html=1;rounded=0;exitX=1;exitY=0.5;exitDx=0;exitDy=0;exitPerimeter=0;entryX=-0.001;entryY=0.496;entryDx=0;entryDy=0;entryPerimeter=0;" parent="1" source="tZp8eonRlOqNcPzEyTe8-8" target="tZp8eonRlOqNcPzEyTe8-14" edge="1">
          <mxGeometry width="50" height="50" relative="1" as="geometry">
            <mxPoint x="513" y="225" as="sourcePoint" />
            <mxPoint x="515" y="370" as="targetPoint" />
          </mxGeometry>
        </mxCell>
        <mxCell id="tZp8eonRlOqNcPzEyTe8-13" value="&lt;div&gt;Create: All&lt;/div&gt;&lt;div&gt;Delete: All&lt;/div&gt;&lt;div&gt;Update: 1. Spec&lt;/div&gt;&lt;div&gt;&amp;nbsp; &amp;nbsp; &amp;nbsp; &amp;nbsp; &amp;nbsp; &amp;nbsp; &amp;nbsp; 2. Label&amp;nbsp;&lt;/div&gt;&lt;div&gt;&amp;nbsp; &amp;nbsp; &amp;nbsp; &amp;nbsp; &amp;nbsp; &amp;nbsp; &amp;nbsp; 3. `kubernetes.io/pvc-protection` finalizer remove&lt;/div&gt;&lt;div&gt;&amp;nbsp; &amp;nbsp; &amp;nbsp; &amp;nbsp; &amp;nbsp; &amp;nbsp; &amp;nbsp; 4. PVC.Status.Phase change to Bound&lt;/div&gt;&lt;div&gt;&amp;nbsp; &amp;nbsp; &amp;nbsp; &amp;nbsp; &amp;nbsp; &amp;nbsp; &amp;nbsp; 5. newpvc.Status.Phase should be Bound&lt;/div&gt;" style="text;html=1;align=left;verticalAlign=middle;resizable=0;points=[];autosize=1;strokeColor=none;fillColor=none;" parent="1" vertex="1">
          <mxGeometry x="120" y="-20" width="330" height="110" as="geometry" />
        </mxCell>
        <mxCell id="tZp8eonRlOqNcPzEyTe8-14" value="&lt;div&gt;&amp;nbsp; spec:&lt;/div&gt;&lt;div&gt;&amp;nbsp; &amp;nbsp; pvcSelector:&lt;br&gt;&amp;nbsp; &amp;nbsp;&amp;nbsp;replicationState:&lt;/div&gt;&lt;div&gt;&amp;nbsp; &amp;nbsp;&amp;nbsp;async:&lt;/div&gt;&lt;div&gt;&amp;nbsp; &amp;nbsp; sync:&lt;br&gt;&amp;nbsp; &amp;nbsp; action:&lt;br&gt;&amp;nbsp; &amp;nbsp; s3Profiles:&lt;br&gt;&amp;nbsp; &amp;nbsp; volSync:&lt;/div&gt;" style="text;html=1;align=left;verticalAlign=middle;resizable=0;points=[];autosize=1;strokeColor=none;fillColor=none;" parent="1" vertex="1">
          <mxGeometry x="450" y="30" width="120" height="130" as="geometry" />
        </mxCell>
        <mxCell id="tZp8eonRlOqNcPzEyTe8-15" value="" style="group" parent="1" vertex="1" connectable="0">
          <mxGeometry x="700" y="45" width="200" height="100" as="geometry" />
        </mxCell>
        <mxCell id="tZp8eonRlOqNcPzEyTe8-16" value="" style="shape=card;whiteSpace=wrap;html=1;" parent="tZp8eonRlOqNcPzEyTe8-15" vertex="1">
          <mxGeometry width="200" height="100" as="geometry" />
        </mxCell>
        <mxCell id="tZp8eonRlOqNcPzEyTe8-17" value="ConfigMap" style="text;html=1;align=center;verticalAlign=middle;resizable=0;points=[];autosize=1;strokeColor=none;fillColor=none;" parent="tZp8eonRlOqNcPzEyTe8-15" vertex="1">
          <mxGeometry x="25" width="80" height="30" as="geometry" />
        </mxCell>
        <mxCell id="tZp8eonRlOqNcPzEyTe8-18" value="ramen-dr-cluster-operator-config" style="text;html=1;align=center;verticalAlign=middle;resizable=0;points=[];autosize=1;strokeColor=none;fillColor=none;" parent="tZp8eonRlOqNcPzEyTe8-15" vertex="1">
          <mxGeometry y="40" width="200" height="30" as="geometry" />
        </mxCell>
        <mxCell id="tZp8eonRlOqNcPzEyTe8-19" value="" style="endArrow=classic;html=1;rounded=0;exitX=0;exitY=0;exitDx=0;exitDy=65;exitPerimeter=0;" parent="1" source="tZp8eonRlOqNcPzEyTe8-16" target="tZp8eonRlOqNcPzEyTe8-2" edge="1">
          <mxGeometry width="50" height="50" relative="1" as="geometry">
            <mxPoint x="170" y="175" as="sourcePoint" />
            <mxPoint x="550" y="110" as="targetPoint" />
          </mxGeometry>
        </mxCell>
        <mxCell id="tZp8eonRlOqNcPzEyTe8-23" value="" style="group" parent="1" vertex="1" connectable="0">
          <mxGeometry x="340" y="510" width="480" height="180" as="geometry" />
        </mxCell>
        <mxCell id="tZp8eonRlOqNcPzEyTe8-20" value="" style="whiteSpace=wrap;html=1;" parent="tZp8eonRlOqNcPzEyTe8-23" vertex="1">
          <mxGeometry width="390" height="180" as="geometry" />
        </mxCell>
        <mxCell id="tZp8eonRlOqNcPzEyTe8-21" value="&lt;b&gt;1. CONSTRUCT VRG INSTANCE: v&lt;br&gt;&lt;/b&gt;1.1. Get VRG CR&lt;div&gt;1.2. Get RamenConfig from CM&amp;nbsp;&lt;/div&gt;&lt;div&gt;ramen-dr-cluster-operator-config&lt;/div&gt;&lt;div&gt;1.3. Construct VSHandler&lt;br&gt;1.4. Init v.instance.Status.ProtectedPVCs&lt;/div&gt;&lt;div&gt;1.5. Save a copy of v.instance.Status&lt;/div&gt;&lt;div&gt;1.6. Init v.instance.Status.Conditions&lt;/div&gt;" style="text;html=1;align=left;verticalAlign=middle;resizable=0;points=[];autosize=1;strokeColor=none;fillColor=none;" parent="tZp8eonRlOqNcPzEyTe8-23" vertex="1">
          <mxGeometry x="140.00246684350134" y="9.995714285714293" width="240" height="130" as="geometry" />
        </mxCell>
        <mxCell id="tZp8eonRlOqNcPzEyTe8-22" value="&lt;span style=&quot;text-wrap: wrap;&quot;&gt;VRGInstance&lt;/span&gt;" style="text;html=1;align=center;verticalAlign=middle;resizable=0;points=[];autosize=1;strokeColor=none;fillColor=none;" parent="tZp8eonRlOqNcPzEyTe8-23" vertex="1">
          <mxGeometry width="90" height="30" as="geometry" />
        </mxCell>
        <mxCell id="tZp8eonRlOqNcPzEyTe8-29" value="" style="group" parent="tZp8eonRlOqNcPzEyTe8-23" vertex="1" connectable="0">
          <mxGeometry x="10" y="60" width="120" height="60" as="geometry" />
        </mxCell>
        <mxCell id="tZp8eonRlOqNcPzEyTe8-27" value="volSyncPVCs" style="whiteSpace=wrap;html=1;" parent="tZp8eonRlOqNcPzEyTe8-29" vertex="1">
          <mxGeometry width="120" height="30" as="geometry" />
        </mxCell>
        <mxCell id="tZp8eonRlOqNcPzEyTe8-28" value="volRepPVCs" style="whiteSpace=wrap;html=1;" parent="tZp8eonRlOqNcPzEyTe8-29" vertex="1">
          <mxGeometry y="30" width="120" height="30" as="geometry" />
        </mxCell>
        <mxCell id="tZp8eonRlOqNcPzEyTe8-32" value="s3StoreAccessors" style="rounded=0;whiteSpace=wrap;html=1;" parent="tZp8eonRlOqNcPzEyTe8-23" vertex="1">
          <mxGeometry x="10" y="140" width="120" height="30" as="geometry" />
        </mxCell>
        <mxCell id="tZp8eonRlOqNcPzEyTe8-25" value="" style="endArrow=classic;html=1;rounded=0;" parent="1" edge="1">
          <mxGeometry width="50" height="50" relative="1" as="geometry">
            <mxPoint x="730" y="600" as="sourcePoint" />
            <mxPoint x="570" y="180" as="targetPoint" />
            <Array as="points">
              <mxPoint x="780" y="600" />
              <mxPoint x="780" y="180" />
            </Array>
          </mxGeometry>
        </mxCell>
        <mxCell id="tZp8eonRlOqNcPzEyTe8-26" value="&lt;b&gt;2. VRG CR VALIDATE&lt;br&gt;&lt;/b&gt;2.1 replicationState should be primary or secondart&lt;div&gt;2.2 sync or async shoule be specify&amp;nbsp;&lt;/div&gt;" style="text;html=1;align=left;verticalAlign=middle;resizable=0;points=[];autosize=1;strokeColor=none;fillColor=none;" parent="1" vertex="1">
          <mxGeometry x="720" y="270" width="290" height="60" as="geometry" />
        </mxCell>
        <mxCell id="tZp8eonRlOqNcPzEyTe8-30" value="" style="endArrow=classic;html=1;rounded=0;entryX=0.002;entryY=0.966;entryDx=0;entryDy=0;entryPerimeter=0;strokeColor=default;align=center;verticalAlign=middle;fontFamily=Helvetica;fontSize=11;fontColor=default;labelBackgroundColor=default;" parent="1" source="tZp8eonRlOqNcPzEyTe8-27" target="tZp8eonRlOqNcPzEyTe8-2" edge="1">
          <mxGeometry width="50" height="50" relative="1" as="geometry">
            <mxPoint x="320" y="460" as="sourcePoint" />
            <mxPoint x="370" y="410" as="targetPoint" />
            <Array as="points">
              <mxPoint x="280" y="585" />
              <mxPoint x="280" y="208" />
            </Array>
          </mxGeometry>
        </mxCell>
        <mxCell id="tZp8eonRlOqNcPzEyTe8-31" value="&lt;b&gt;3. UPDATE PVC LIST&lt;/b&gt;&lt;div&gt;3.1 Get PVCs by pvcSelector in VRG but&lt;/div&gt;&lt;div&gt;exclude label `app.kubernetes.io/created-by:volsync`&lt;/div&gt;&lt;div&gt;3.2 Based no RepiicationClass, t&lt;span style=&quot;background-color: initial;&quot;&gt;riage PVCs&lt;/span&gt;&lt;/div&gt;" style="text;html=1;align=left;verticalAlign=middle;resizable=0;points=[];autosize=1;strokeColor=none;fillColor=none;" parent="1" vertex="1">
          <mxGeometry x="160" y="320" width="300" height="70" as="geometry" />
        </mxCell>
        <mxCell id="tZp8eonRlOqNcPzEyTe8-35" value="" style="endArrow=classic;html=1;rounded=0;strokeColor=default;align=center;verticalAlign=middle;fontFamily=Helvetica;fontSize=11;fontColor=default;labelBackgroundColor=default;exitX=0;exitY=0.5;exitDx=0;exitDy=0;entryX=0.007;entryY=0.828;entryDx=0;entryDy=0;entryPerimeter=0;" parent="1" source="tZp8eonRlOqNcPzEyTe8-32" target="tZp8eonRlOqNcPzEyTe8-2" edge="1">
          <mxGeometry width="50" height="50" relative="1" as="geometry">
            <mxPoint x="351.48" y="657.31" as="sourcePoint" />
            <mxPoint x="450" y="170.00000000000006" as="targetPoint" />
            <Array as="points">
              <mxPoint x="70" y="665" />
              <mxPoint x="71.48" y="182.31" />
            </Array>
          </mxGeometry>
        </mxCell>
        <mxCell id="tZp8eonRlOqNcPzEyTe8-37" value="&lt;b&gt;4. CONSTRUCT S3CLIENT&lt;/b&gt;&lt;div&gt;4.1 build s3 client based on s3 Profiles in VRG&lt;/div&gt;" style="text;html=1;align=left;verticalAlign=middle;resizable=0;points=[];autosize=1;strokeColor=none;fillColor=none;" parent="1" vertex="1">
          <mxGeometry x="-60" y="403" width="270" height="40" as="geometry" />
        </mxCell>
        <mxCell id="ojVLJ5AU1RtEShK-KxYg-1" value="" style="endArrow=classic;html=1;rounded=0;exitX=0.75;exitY=0;exitDx=0;exitDy=0;entryX=0.992;entryY=0.951;entryDx=0;entryDy=0;entryPerimeter=0;" edge="1" parent="1" source="tZp8eonRlOqNcPzEyTe8-20" target="tZp8eonRlOqNcPzEyTe8-2">
          <mxGeometry width="50" height="50" relative="1" as="geometry">
            <mxPoint x="470" y="390" as="sourcePoint" />
            <mxPoint x="480" y="440" as="targetPoint" />
            <Array as="points">
              <mxPoint x="630" y="205" />
            </Array>
          </mxGeometry>
        </mxCell>
        <mxCell id="ojVLJ5AU1RtEShK-KxYg-2" value="&lt;b&gt;5. ADD FINALIZEER&lt;br&gt;&lt;/b&gt;&lt;div style=&quot;&quot;&gt;&lt;span style=&quot;background-color: initial;&quot;&gt;- volumereplicationgroups.&lt;/span&gt;&lt;/div&gt;&lt;div style=&quot;&quot;&gt;&lt;span style=&quot;background-color: initial;&quot;&gt;&amp;nbsp; ramendr.openshift.io/vrg-protection&amp;nbsp;&lt;/span&gt;&lt;/div&gt;" style="text;html=1;align=left;verticalAlign=middle;resizable=0;points=[];autosize=1;strokeColor=none;fillColor=none;" vertex="1" parent="1">
          <mxGeometry x="550" y="360" width="220" height="60" as="geometry" />
        </mxCell>
      </root>
    </mxGraphModel>
  </diagram>
</mxfile>
